<svg width="24" height="25" viewBox="0 0 24 25" xmlns="http://www.w3.org/2000/svg">
<path d="M12 24.5032C15.1826 24.5032 18.2348 23.2389 20.4853 20.9885C22.7357 18.738 24 15.6858 24 12.5032C24 9.32058 22.7357 6.26833 20.4853 4.01789C18.2348 1.76746 15.1826 0.503174 12 0.503174C8.8174 0.503174 5.76516 1.76746 3.51472 4.01789C1.26428 6.26833 0 9.32058 0 12.5032C0 15.6858 1.26428 18.738 3.51472 20.9885C5.76516 23.2389 8.8174 24.5032 12 24.5032ZM17.2969 10.3L11.2969 16.3C10.8562 16.7407 10.1438 16.7407 9.70781 16.3L6.70781 13.3C6.26719 12.8594 6.26719 12.1469 6.70781 11.711C7.14844 11.275 7.86094 11.2704 8.29688 11.711L10.5 13.9141L15.7031 8.7063C16.1437 8.26567 16.8562 8.26567 17.2922 8.7063C17.7281 9.14692 17.7328 9.85942 17.2922 10.2954L17.2969 10.3Z"/>
</svg>
